<svg width="44" height="44" viewBox="0 0 44 44" fill="none" xmlns="http://www.w3.org/2000/svg">
<rect width="44" height="44" rx="8" fill="#F9F9F9"/>
<path fill-rule="evenodd" clip-rule="evenodd" d="M28.5 21C26.3787 21 25.318 21 24.659 20.341C24 19.682 24 18.6213 24 16.5C24 14.3787 24 13.318 24.659 12.659C25.318 12 26.3787 12 28.5 12C30.6213 12 31.682 12 32.341 12.659C33 13.318 33 14.3787 33 16.5C33 18.6213 33 19.682 32.341 20.341C31.682 21 30.6213 21 28.5 21ZM27.0303 13.9697C26.7374 13.6768 26.2626 13.6768 25.9697 13.9697C25.6768 14.2626 25.6768 14.7374 25.9697 15.0303L27.4393 16.5L25.9697 17.9697C25.6768 18.2626 25.6768 18.7374 25.9697 19.0303C26.2626 19.3232 26.7374 19.3232 27.0303 19.0303L28.5 17.5607L29.9697 19.0303C30.2626 19.3232 30.7374 19.3232 31.0303 19.0303C31.3232 18.7374 31.3232 18.2626 31.0303 17.9697L29.5607 16.5L31.0303 15.0303C31.3232 14.7374 31.3232 14.2626 31.0303 13.9697C30.7374 13.6768 30.2626 13.6768 29.9697 13.9697L28.5 15.4393L27.0303 13.9697Z" fill="#FF9E66"/>
<path fill-rule="evenodd" clip-rule="evenodd" d="M23.5984 21.4018C24.253 22.0564 25.0522 22.2996 25.8313 22.4043C26.2455 22.46 26.7163 22.4834 27.2303 22.4931C28.2801 23.9032 28.75 25.6515 28.75 27.3752H12C12 23.5 14.375 19.5002 20.375 19.5002C21.22 19.5002 21.9932 19.5796 22.6979 19.7267C22.8397 20.3204 23.0996 20.903 23.5984 21.4018ZM29.1086 30.8588C29.5187 30.4487 29.7493 29.8927 29.75 29.3127C29.75 29.2299 29.7171 29.1504 29.6585 29.0918C29.5999 29.0332 29.5204 29.0002 29.4375 29.0002H11.3125C11.2296 29.0002 11.1501 29.0332 11.0915 29.0918C11.0329 29.1504 11 29.2299 11 29.3127C11.0007 29.8927 11.2313 30.4487 11.6414 30.8588C12.0515 31.2689 12.6075 31.4996 13.1875 31.5002H27.5625C28.1425 31.4996 28.6985 31.2689 29.1086 30.8588ZM21.8781 17.994C21.381 17.9147 20.8784 17.875 20.375 17.8752C19.8716 17.875 19.369 17.9147 18.8719 17.994C18.8329 17.8535 18.813 17.7085 18.8125 17.5627C18.8125 17.1483 18.9771 16.7509 19.2701 16.4579C19.5632 16.1649 19.9606 16.0002 20.375 16.0002C20.7894 16.0002 21.1868 16.1649 21.4799 16.4579C21.7729 16.7509 21.9375 17.1483 21.9375 17.5627C21.937 17.7085 21.9171 17.8535 21.8781 17.994Z" fill="#FF9E66"/>
</svg>
