<svg width="44" height="44" viewBox="0 0 44 44" fill="none" xmlns="http://www.w3.org/2000/svg">
<rect width="44" height="44" rx="8" fill="#F9F9F9"/>
<path fill-rule="evenodd" clip-rule="evenodd" d="M27.5 21C25.3787 21 24.318 21 23.659 20.341C23 19.682 23 18.6213 23 16.5C23 14.3787 23 13.318 23.659 12.659C24.318 12 25.3787 12 27.5 12C29.6213 12 30.682 12 31.341 12.659C32 13.318 32 14.3787 32 16.5C32 18.6213 32 19.682 31.341 20.341C30.682 21 29.6213 21 27.5 21ZM26.0303 13.9697C25.7374 13.6768 25.2626 13.6768 24.9697 13.9697C24.6768 14.2626 24.6768 14.7374 24.9697 15.0303L26.4393 16.5L24.9697 17.9697C24.6768 18.2626 24.6768 18.7374 24.9697 19.0303C25.2626 19.3232 25.7374 19.3232 26.0303 19.0303L27.5 17.5607L28.9697 19.0303C29.2626 19.3232 29.7374 19.3232 30.0303 19.0303C30.3232 18.7374 30.3232 18.2626 30.0303 17.9697L28.5607 16.5L30.0303 15.0303C30.3232 14.7374 30.3232 14.2626 30.0303 13.9697C29.7374 13.6768 29.2626 13.6768 28.9697 13.9697L27.5 15.4393L26.0303 13.9697Z" fill="#FF9E66"/>
<path fill-rule="evenodd" clip-rule="evenodd" d="M12 22C12 17.286 12 14.9289 13.4645 13.4645C14.9289 12 17.286 12 22 12C22.0867 12 22.1727 12 22.2579 12C21.8534 12.5665 21.6799 13.2054 21.5958 13.8313C21.4998 14.5448 21.4999 15.4264 21.5 16.4076V16.5924C21.4999 17.5736 21.4998 18.4552 21.5958 19.1687C21.7005 19.9478 21.9437 20.747 22.5984 21.4016C23.253 22.0563 24.0522 22.2995 24.8313 22.4042C25.5448 22.5002 26.4264 22.5001 27.4076 22.5H27.5924C28.5736 22.5001 29.4552 22.5002 30.1687 22.4042C30.7946 22.3201 31.4335 22.1466 32 21.7421C32 21.8273 32 21.9133 32 22C32 26.714 32 29.0711 30.5355 30.5355C29.0711 32 26.714 32 22 32C17.286 32 14.9289 32 13.4645 30.5355C12 29.0711 12 26.714 12 22ZM20.5172 16.4569C20.8172 16.7426 20.8288 17.2173 20.5431 17.5172L17.686 20.5172C17.5444 20.6659 17.3481 20.75 17.1429 20.75C16.9376 20.75 16.7413 20.6659 16.5998 20.5172L15.4569 19.3172C15.1712 19.0173 15.1828 18.5426 15.4828 18.2569C15.7827 17.9712 16.2574 17.9828 16.5431 18.2828L17.1429 18.9125L19.4569 16.4828C19.7426 16.1828 20.2173 16.1712 20.5172 16.4569ZM20.5172 23.4569C20.8172 23.7426 20.8288 24.2173 20.5431 24.5172L17.686 27.5172C17.5444 27.6659 17.3481 27.75 17.1429 27.75C16.9376 27.75 16.7413 27.6659 16.5998 27.5172L15.4569 26.3172C15.1712 26.0173 15.1828 25.5426 15.4828 25.2569C15.7827 24.9712 16.2574 24.9828 16.5431 25.2828L17.1429 25.9125L19.4569 23.4828C19.7426 23.1828 20.2173 23.1712 20.5172 23.4569ZM22.25 26C22.25 25.5858 22.5858 25.25 23 25.25H28C28.4142 25.25 28.75 25.5858 28.75 26C28.75 26.4142 28.4142 26.75 28 26.75H23C22.5858 26.75 22.25 26.4142 22.25 26Z" fill="#FF9E66"/>
</svg>
