<svg width="12" height="14" viewBox="0 0 12 14" fill="none" xmlns="http://www.w3.org/2000/svg">
<path fill-rule="evenodd" clip-rule="evenodd" d="M12 6.39839V9.72731C12 11.7917 12 12.8239 11.5106 13.2749C11.2772 13.49 10.9826 13.6252 10.6687 13.6611C10.0107 13.7364 9.24218 13.0567 7.70523 11.6973C7.02585 11.0964 6.68617 10.7959 6.29315 10.7168C6.09962 10.6778 5.90038 10.6778 5.70685 10.7168C5.31383 10.7959 4.97415 11.0964 4.29477 11.6973C2.75782 13.0567 1.98935 13.7364 1.33128 13.6611C1.01743 13.6252 0.72281 13.49 0.489404 13.2749C0 12.8239 0 11.7917 0 9.72731V6.39839C0 3.53931 0 2.10978 0.87868 1.22157C1.75736 0.333374 3.17157 0.333374 6 0.333374C8.82843 0.333374 10.2426 0.333374 11.1213 1.22157C12 2.10978 12 3.53931 12 6.39839ZM3.5 3.00004C3.5 2.7239 3.72386 2.50004 4 2.50004H8C8.27614 2.50004 8.5 2.7239 8.5 3.00004C8.5 3.27618 8.27614 3.50004 8 3.50004H4C3.72386 3.50004 3.5 3.27618 3.5 3.00004Z" fill="#FF5D00"/>
</svg>
