<svg width="14" height="14" viewBox="0 0 14 14" fill="none" xmlns="http://www.w3.org/2000/svg">
<path fill-rule="evenodd" clip-rule="evenodd" d="M7.72435 13.2585L8.08575 12.6479C8.36607 12.1743 8.50623 11.9375 8.73136 11.8066C8.9565 11.6757 9.23994 11.6708 9.80684 11.661C10.6438 11.6466 11.1687 11.5953 11.6089 11.413C12.4256 11.0747 13.0745 10.4257 13.4129 9.60899C13.6666 8.99642 13.6666 8.21985 13.6666 6.66671V6.00004C13.6666 3.81775 13.6666 2.72661 13.1754 1.92505C12.9005 1.47653 12.5234 1.09943 12.0749 0.824574C11.2733 0.333374 10.1822 0.333374 7.99992 0.333374H5.99992C3.81763 0.333374 2.72649 0.333374 1.92492 0.824574C1.47641 1.09943 1.0993 1.47653 0.824452 1.92505C0.333252 2.72661 0.333252 3.81775 0.333252 6.00004V6.66671C0.333252 8.21985 0.333252 8.99642 0.586987 9.60899C0.9253 10.4257 1.57421 11.0747 2.39097 11.413C2.83118 11.5953 3.35606 11.6466 4.19297 11.661C4.75987 11.6708 5.04331 11.6757 5.26845 11.8066C5.49358 11.9375 5.63374 12.1743 5.91406 12.6479L6.27546 13.2585C6.59757 13.8027 7.40224 13.8027 7.72435 13.2585ZM9.66659 7.00004C10.0348 7.00004 10.3333 6.70156 10.3333 6.33337C10.3333 5.96518 10.0348 5.66671 9.66659 5.66671C9.2984 5.66671 8.99992 5.96518 8.99992 6.33337C8.99992 6.70156 9.2984 7.00004 9.66659 7.00004ZM7.66659 6.33337C7.66659 6.70156 7.36811 7.00004 6.99992 7.00004C6.63173 7.00004 6.33325 6.70156 6.33325 6.33337C6.33325 5.96518 6.63173 5.66671 6.99992 5.66671C7.36811 5.66671 7.66659 5.96518 7.66659 6.33337ZM4.33325 7.00004C4.70144 7.00004 4.99992 6.70156 4.99992 6.33337C4.99992 5.96518 4.70144 5.66671 4.33325 5.66671C3.96506 5.66671 3.66659 5.96518 3.66659 6.33337C3.66659 6.70156 3.96506 7.00004 4.33325 7.00004Z" fill="#FF5D00"/>
</svg>
