<svg width="44" height="44" viewBox="0 0 44 44" fill="none" xmlns="http://www.w3.org/2000/svg">
<rect width="44" height="44" rx="8" fill="#F9F9F9"/>
<path fill-rule="evenodd" clip-rule="evenodd" d="M28.5 21C26.3787 21 25.318 21 24.659 20.341C24 19.682 24 18.6213 24 16.5C24 14.3787 24 13.318 24.659 12.659C25.318 12 26.3787 12 28.5 12C30.6213 12 31.682 12 32.341 12.659C33 13.318 33 14.3787 33 16.5C33 18.6213 33 19.682 32.341 20.341C31.682 21 30.6213 21 28.5 21ZM27.0303 13.9697C26.7374 13.6768 26.2626 13.6768 25.9697 13.9697C25.6768 14.2626 25.6768 14.7374 25.9697 15.0303L27.4393 16.5L25.9697 17.9697C25.6768 18.2626 25.6768 18.7374 25.9697 19.0303C26.2626 19.3232 26.7374 19.3232 27.0303 19.0303L28.5 17.5607L29.9697 19.0303C30.2626 19.3232 30.7374 19.3232 31.0303 19.0303C31.3232 18.7374 31.3232 18.2626 31.0303 17.9697L29.5607 16.5L31.0303 15.0303C31.3232 14.7374 31.3232 14.2626 31.0303 13.9697C30.7374 13.6768 30.2626 13.6768 29.9697 13.9697L28.5 15.4393L27.0303 13.9697Z" fill="#FF9E66"/>
<path fill-rule="evenodd" clip-rule="evenodd" d="M24.0046 21.7454C23.8643 21.6456 23.7285 21.5318 23.5984 21.4016C22.9437 20.747 22.7005 19.9478 22.5958 19.1687C22.4998 18.4552 22.4999 17.5736 22.5 16.5924V16.4076C22.4999 15.4264 22.4998 14.5448 22.5958 13.8313C22.605 13.7629 22.6152 13.6943 22.6267 13.6258C22.6054 13.6253 22.584 13.625 22.5625 13.625C20.6031 13.625 19.125 15.775 19.125 18.625C19.125 19.5367 19.4872 20.411 20.1318 21.0557C20.7765 21.7003 21.6508 22.0625 22.5625 22.0625C23.0653 22.0625 23.5567 21.9523 24.0046 21.7454ZM16.2754 13.9004C16.4511 13.7248 16.6891 13.6257 16.9375 13.625C17.1859 13.6257 17.4239 13.7248 17.5996 13.9004C17.7752 14.0761 17.8743 14.3141 17.875 14.5625V18.625C17.875 19.5367 17.5128 20.411 16.8682 21.0557C16.2235 21.7003 15.3492 22.0625 14.4375 22.0625C13.5258 22.0625 12.6515 21.7003 12.0068 21.0557C11.3622 20.411 11 19.5367 11 18.625V14.5625C11 14.3139 11.0988 14.0754 11.2746 13.8996C11.4504 13.7238 11.6889 13.625 11.9375 13.625C12.1861 13.625 12.4246 13.7238 12.6004 13.8996C12.7762 14.0754 12.875 14.3139 12.875 14.5625V18.3125C12.875 18.3954 12.9079 18.4749 12.9665 18.5335C13.0251 18.5921 13.1046 18.625 13.1875 18.625C13.2704 18.625 13.3499 18.5921 13.4085 18.5335C13.4671 18.4749 13.5 18.3954 13.5 18.3125V14.5625C13.5 14.3139 13.5988 14.0754 13.7746 13.8996C13.9504 13.7238 14.1889 13.625 14.4375 13.625C14.6861 13.625 14.9246 13.7238 15.1004 13.8996C15.2762 14.0754 15.375 14.3139 15.375 14.5625V18.3125C15.375 18.3954 15.4079 18.4749 15.4665 18.5335C15.5251 18.5921 15.6046 18.625 15.6875 18.625C15.7704 18.625 15.8499 18.5921 15.9085 18.5335C15.9671 18.4749 16 18.3954 16 18.3125V14.5625C16.0007 14.3141 16.0998 14.0761 16.2754 13.9004ZM13.625 23C14.2415 23.1458 14.8835 23.1458 15.5 23L16.125 30.2344C16.125 30.6488 15.9604 31.0462 15.6674 31.3392C15.3743 31.6323 14.9769 31.7969 14.5625 31.7969C14.1481 31.7969 13.7507 31.6323 13.4576 31.3392C13.1646 31.0462 13 30.6488 13 30.2344L13.625 23ZM21 30.2344L21.625 23C22.2415 23.1458 22.8835 23.1458 23.5 23L24.125 30.2344C24.125 30.6488 23.9604 31.0462 23.6674 31.3392C23.3743 31.6323 22.9769 31.7969 22.5625 31.7969C22.1481 31.7969 21.7507 31.6323 21.4576 31.3392C21.1646 31.0462 21 30.6488 21 30.2344Z" fill="#FF9E66"/>
</svg>
