<svg width="44" height="44" viewBox="0 0 44 44" fill="none" xmlns="http://www.w3.org/2000/svg">
<rect width="44" height="44" rx="8" fill="#F9F9F9"/>
<path d="M19.5 12C18.6716 12 18 12.6716 18 13.5V14.5C18 15.3284 18.6716 16 19.5 16H24.5C25.3284 16 26 15.3284 26 14.5V13.5C26 12.6716 25.3284 12 24.5 12H19.5Z" fill="#FF9E66"/>
<path fill-rule="evenodd" clip-rule="evenodd" d="M13.8787 14.8769C14.448 14.3076 15.2421 14.1072 16.5 14.0366V14.5C16.5 16.1569 17.8431 17.5 19.5 17.5H24.5C26.1569 17.5 27.5 16.1569 27.5 14.5V14.0366C28.7579 14.1072 29.552 14.3076 30.1213 14.8769C31 15.7556 31 17.1698 31 19.9983V25.9983C31 28.8267 31 30.2409 30.1213 31.1196C29.2426 31.9983 27.8284 31.9983 25 31.9983H19C16.1716 31.9983 14.7574 31.9983 13.8787 31.1196C13 30.2409 13 28.8267 13 25.9983V19.9983C13 17.1698 13 15.7556 13.8787 14.8769ZM22 23.4394L20.0303 21.4697C19.7374 21.1768 19.2626 21.1768 18.9697 21.4697C18.6768 21.7626 18.6768 22.2374 18.9697 22.5303L20.9394 24.5L18.9697 26.4697C18.6768 26.7626 18.6768 27.2374 18.9697 27.5303C19.2626 27.8232 19.7375 27.8232 20.0304 27.5303L22 25.5607L23.9696 27.5303C24.2625 27.8232 24.7374 27.8232 25.0303 27.5303C25.3232 27.2374 25.3232 26.7625 25.0303 26.4697L23.0607 24.5L25.0303 22.5303C25.3232 22.2375 25.3232 21.7626 25.0303 21.4697C24.7374 21.1768 24.2626 21.1768 23.9697 21.4697L22 23.4394Z" fill="#FF9E66"/>
</svg>
