<svg width="44" height="44" viewBox="0 0 44 44" fill="none" xmlns="http://www.w3.org/2000/svg">
<rect width="44" height="44" rx="8" fill="#F9F9F9"/>
<path d="M31.9998 22.6978C31.9983 24.1674 31.9871 25.4165 31.9036 26.4414C31.8067 27.6308 31.6081 28.6246 31.1636 29.45C30.9676 29.814 30.7267 30.1401 30.4334 30.4334C29.601 31.2657 28.5405 31.6428 27.1966 31.8235C25.8835 32 24.2007 32 22.0534 32H21.9466C19.7993 32 18.1165 32 16.8034 31.8235C15.4595 31.6428 14.399 31.2657 13.5666 30.4334C12.8287 29.6954 12.4476 28.777 12.245 27.6376C12.0459 26.5184 12.0095 25.1259 12.0019 23.3967C12 22.9569 12 22.4917 12 22.0009V21.9466C12 19.7993 12 18.1165 12.1765 16.8034C12.3572 15.4595 12.7343 14.399 13.5666 13.5666C14.399 12.7343 15.4595 12.3572 16.8034 12.1765C17.9711 12.0195 19.4735 12.0021 21.302 12.0002C21.6873 11.9998 22 12.3124 22 12.6977C22 13.083 21.6872 13.3952 21.3019 13.3956C19.4475 13.3976 18.0675 13.4145 16.9894 13.5594C15.8002 13.7193 15.0832 14.0234 14.5533 14.5533C14.0234 15.0832 13.7193 15.8002 13.5594 16.9894C13.3968 18.1987 13.3953 19.7877 13.3953 22C13.3953 22.2702 13.3953 22.5314 13.3957 22.7844L14.327 21.9696C15.1747 21.2278 16.4522 21.2704 17.2487 22.0668L21.2392 26.0573C21.8785 26.6966 22.8848 26.7837 23.6245 26.2639L23.9019 26.0689C24.9663 25.3209 26.4064 25.4076 27.3734 26.2779L30.0064 28.6476C30.2714 28.091 30.4288 27.3597 30.5128 26.3281C30.592 25.3561 30.6029 24.1755 30.6044 22.6979C30.6048 22.3126 30.917 22 31.3023 22C31.6876 22 32.0002 22.3125 31.9998 22.6978Z" fill="#FF9E66"/>
<path fill-rule="evenodd" clip-rule="evenodd" d="M27.5 21C25.3787 21 24.318 21 23.659 20.341C23 19.682 23 18.6213 23 16.5C23 14.3787 23 13.318 23.659 12.659C24.318 12 25.3787 12 27.5 12C29.6213 12 30.682 12 31.341 12.659C32 13.318 32 14.3787 32 16.5C32 18.6213 32 19.682 31.341 20.341C30.682 21 29.6213 21 27.5 21ZM26.0303 13.9697C25.7374 13.6768 25.2626 13.6768 24.9697 13.9697C24.6768 14.2626 24.6768 14.7374 24.9697 15.0303L26.4393 16.5L24.9697 17.9697C24.6768 18.2626 24.6768 18.7374 24.9697 19.0303C25.2626 19.3232 25.7374 19.3232 26.0303 19.0303L27.5 17.5607L28.9697 19.0303C29.2626 19.3232 29.7374 19.3232 30.0303 19.0303C30.3232 18.7374 30.3232 18.2626 30.0303 17.9697L28.5607 16.5L30.0303 15.0303C30.3232 14.7374 30.3232 14.2626 30.0303 13.9697C29.7374 13.6768 29.2626 13.6768 28.9697 13.9697L27.5 15.4393L26.0303 13.9697Z" fill="#FF9E66"/>
</svg>
