<svg width="14" height="13" viewBox="0 0 14 13" fill="none" xmlns="http://www.w3.org/2000/svg">
<path d="M8.77664 0.552774C9.02363 0.429279 9.32396 0.529391 9.44746 0.776381L10.9149 3.71126C11.817 3.78056 12.383 3.9575 12.7483 4.4093C13.0386 4.76835 13.1325 5.21505 13.098 5.83332H0.902552C0.868033 5.21505 0.961981 4.76835 1.25224 4.4093C1.61748 3.95751 2.18354 3.78056 3.08559 3.71127L4.55303 0.776381C4.67653 0.529391 4.97686 0.429279 5.22385 0.552774C5.47084 0.676269 5.57095 0.976605 5.44746 1.22359L4.22417 3.67017C4.54632 3.66665 4.89783 3.66665 5.28155 3.66665H8.71898C9.10268 3.66665 9.45418 3.66665 9.77632 3.67017L8.55303 1.22359C8.42954 0.976605 8.52965 0.676269 8.77664 0.552774Z" fill="#FF5D00"/>
<path fill-rule="evenodd" clip-rule="evenodd" d="M1.37034 8.50477C1.23234 7.86077 1.11422 7.30954 1.03034 6.83332H12.9702C12.8863 7.30953 12.7682 7.86074 12.6302 8.50473L12.3445 9.8381C12.0198 11.3531 11.8575 12.1107 11.3075 12.5553C10.7574 13 9.9827 13 8.43327 13H5.56726C4.01784 13 3.24313 13 2.69308 12.5553C2.14303 12.1107 1.9807 11.3531 1.65605 9.8381L1.37034 8.50477ZM5.66691 7.83332C5.39077 7.83332 5.16691 8.05718 5.16691 8.33332C5.16691 8.60946 5.39077 8.83332 5.66691 8.83332H8.33358C8.60972 8.83332 8.83358 8.60946 8.83358 8.33332C8.83358 8.05718 8.60972 7.83332 8.33358 7.83332H5.66691Z" fill="#FF5D00"/>
</svg>
